<?xml version="1.0" standalone="no"?>
<!DOCTYPE svg PUBLIC "-//W3C//DTD SVG 20010904//EN"
 "http://www.w3.org/TR/2001/REC-SVG-20010904/DTD/svg10.dtd">
<svg version="1.0" xmlns="http://www.w3.org/2000/svg"
 width="284.000000pt" height="284.000000pt" viewBox="0 0 284.000000 284.000000"
 preserveAspectRatio="xMidYMid meet">
<metadata>
Created by potrace 1.11, written by Peter Selinger 2001-2013
</metadata>
<g transform="translate(0.000000,284.000000) scale(0.100000,-0.100000)"
fill="#000000" stroke="none">
<path d="M613 2148 c-15 -5 -37 -10 -49 -12 -11 -2 -52 -17 -90 -32 -222 -89
-392 -285 -453 -524 -17 -67 -19 -117 -20 -487 l-1 -413 228 0 228 0 1 378 c1
235 5 393 12 417 31 115 136 208 250 222 l48 5 0 230 1 229 -63 -3 c-35 -1
-76 -6 -92 -10z"/>
<path d="M884 1935 l1 -228 55 -12 c30 -6 69 -19 86 -28 48 -25 109 -90 135
-144 24 -48 24 -50 27 -445 l3 -398 229 0 229 0 3 398 c3 389 3 398 26 444 25
53 88 120 136 145 17 9 56 22 86 28 l55 12 1 227 1 228 -78 -6 c-140 -11 -273
-64 -393 -156 l-66 -51 -58 44 c-121 95 -261 151 -399 163 l-80 7 1 -228z"/>
<path d="M2073 1935 l2 -228 55 -11 c123 -25 220 -118 245 -236 4 -19 8 -202
8 -407 l-1 -373 230 0 229 0 -4 423 c-2 232 -6 436 -10 452 -82 337 -349 574
-677 601 l-79 7 2 -228z"/>
</g>
</svg>
